<?xml version="1.0" standalone="no"?>
<!DOCTYPE svg PUBLIC "-//W3C//DTD SVG 20010904//EN"
 "http://www.w3.org/TR/2001/REC-SVG-20010904/DTD/svg10.dtd">
<svg version="1.0" xmlns="http://www.w3.org/2000/svg"
 width="413.000000pt" height="277.000000pt" viewBox="0 0 413.000000 277.000000"
 preserveAspectRatio="xMidYMid meet">

<g transform="translate(0.000000,277.000000) scale(0.100000,-0.100000)"
fill="#000000" stroke="none">
<path d="M758 2738 c-49 -59 -78 -102 -78 -115 0 -7 -4 -13 -10 -13 -5 0 -10
-7 -10 -15 0 -8 -4 -23 -10 -33 -24 -44 -41 -91 -45 -127 -3 -22 -9 -43 -14
-48 -5 -5 -7 -16 -4 -25 5 -11 3 -13 -6 -7 -10 5 -11 2 -6 -14 3 -11 2 -21 -3
-21 -8 0 -35 -68 -37 -95 -3 -26 -48 -134 -55 -130 -4 3 -11 -12 -14 -33 -10
-54 -17 -73 -24 -68 -4 2 -7 -12 -8 -32 0 -20 -6 -38 -12 -40 -7 -2 -12 -10
-12 -18 0 -9 -4 -13 -9 -9 -6 3 -13 -11 -16 -32 -4 -21 -12 -56 -18 -78 -6
-22 -10 -43 -9 -47 1 -5 -4 -8 -12 -8 -20 0 -30 90 -24 209 5 74 4 86 -4 51
-5 -25 -7 -87 -6 -138 2 -50 2 -92 1 -92 -1 0 -12 20 -24 45 -19 38 -39 58
-39 40 0 -14 41 -74 75 -110 11 -11 19 -31 19 -44 -1 -12 4 -25 12 -28 7 -2
16 -23 20 -46 4 -23 8 -44 9 -47 4 -20 16 -81 17 -87 1 -5 12 -32 25 -61 13
-29 21 -57 18 -62 -3 -5 2 -15 10 -24 9 -8 16 -18 15 -21 -1 -21 1 -25 10 -20
6 4 8 16 4 28 -8 26 -1 21 16 -12 6 -13 8 -21 2 -17 -5 3 -12 -1 -16 -9 -3 -8
-1 -15 4 -15 6 0 9 -4 7 -8 -1 -5 13 -31 30 -59 33 -51 63 -144 63 -195 0 -22
5 -28 23 -28 44 0 60 -26 71 -120 18 -146 78 -189 259 -190 82 0 225 30 327
69 30 12 60 21 65 21 6 0 28 -28 49 -61 22 -34 46 -68 54 -75 34 -35 241 -334
272 -394 7 -14 38 -63 70 -110 31 -47 59 -92 63 -100 4 -11 6 -12 6 -1 1 7
-19 44 -44 81 -25 37 -45 70 -45 74 0 3 -17 31 -39 63 -21 32 -61 93 -90 135
-53 80 -60 95 -38 81 7 -4 5 4 -5 18 -9 15 -13 31 -8 38 4 7 1 26 -7 42 -14
27 -13 33 12 74 14 25 30 45 35 45 5 0 1 -15 -10 -33 -28 -46 -25 -57 5 -17
14 19 23 41 20 49 -2 10 9 26 30 41 19 14 38 35 41 47 7 26 31 49 41 39 4 -4
1 -12 -7 -17 -13 -9 -13 -10 0 -6 8 2 16 10 16 18 1 8 2 19 3 26 0 7 8 10 16
6 10 -3 15 0 13 8 -2 10 5 13 22 11 20 -3 23 -1 13 9 -18 18 -16 25 7 26 11 1
20 -3 20 -10 0 -12 29 23 30 37 0 5 -7 3 -15 -4 -11 -9 -15 -9 -15 -1 0 16 51
34 63 22 11 -11 39 -3 31 10 -3 5 -10 7 -15 4 -5 -4 -9 -1 -9 4 0 6 9 11 19
11 11 0 23 5 26 10 4 6 15 8 26 5 13 -4 19 -2 19 9 0 9 5 16 11 16 5 0 7 5 4
10 -4 6 -10 8 -15 5 -5 -3 -12 0 -16 6 -4 8 -3 9 4 5 7 -4 12 -2 12 3 0 6 -4
11 -10 11 -5 0 -10 4 -10 10 0 5 8 6 17 3 15 -6 16 -5 3 9 -13 14 -16 14 -26
-1 -11 -14 -14 -13 -24 11 -8 18 -22 28 -39 30 -19 2 -26 9 -27 26 -1 15 4 22
17 22 10 0 20 4 23 8 2 4 -5 8 -18 7 -21 0 -61 -30 -61 -46 0 -4 -4 -11 -9
-16 -5 -4 -6 -3 -3 3 5 8 -6 13 -28 16 -19 2 -35 1 -35 -3 0 -3 -29 -6 -64 -5
-35 1 -62 4 -59 9 2 4 12 7 22 7 10 0 27 12 36 28 l18 27 -27 -24 c-14 -14
-26 -21 -26 -18 0 4 -18 -2 -40 -13 -22 -11 -40 -25 -40 -30 0 -6 -9 -10 -19
-10 -11 0 -23 -5 -26 -10 -3 -6 -13 -10 -21 -10 -8 0 -12 5 -9 10 4 6 11 7 17
4 8 -5 9 -1 5 10 -4 10 -3 15 3 11 6 -3 10 -2 10 4 0 5 -6 12 -12 14 -8 3 -6
6 4 6 11 1 16 8 13 21 -2 11 -1 20 3 20 4 0 8 14 9 30 1 18 -2 28 -7 25 -6 -4
-10 -13 -10 -21 0 -8 -4 -12 -10 -9 -5 3 -7 0 -4 -8 3 -8 1 -18 -5 -22 -10 -6
-15 13 -12 42 1 6 -3 14 -9 18 -5 3 -10 19 -10 35 0 16 -4 31 -9 34 -5 3 -12
41 -16 83 -6 58 -10 72 -16 53 -7 -25 -7 -24 -8 4 -2 46 -24 146 -33 146 -4 0
-8 13 -8 29 0 17 -5 33 -11 36 -6 4 -8 14 -5 22 3 8 -1 24 -8 36 -8 12 -17 51
-20 87 -3 36 -15 97 -26 135 -11 39 -26 129 -34 200 l-15 130 5 -108 c2 -59 7
-122 9 -140 5 -30 4 -29 -16 11 -15 32 -25 42 -37 38 -13 -5 -12 -3 2 9 18 14
19 15 2 15 -14 0 -17 5 -12 25 5 19 3 23 -8 19 -10 -4 -20 5 -30 28 -12 24
-14 26 -10 8 l5 -25 -15 25 c-11 19 -12 28 -3 39 9 11 9 13 1 8 -13 -7 -23 12
-31 56 -3 18 0 27 9 27 9 0 9 3 -2 10 -9 6 -11 10 -3 10 7 0 10 7 6 16 -5 13
-7 13 -14 2 -6 -10 -9 -8 -9 7 0 17 -2 17 -10 5 -5 -8 -7 -23 -4 -32 3 -12 0
-18 -9 -18 -10 0 -13 7 -10 19 4 15 -1 20 -24 23 -19 2 -28 8 -27 20 1 10 -3
15 -9 11 -6 -4 -8 2 -5 15 4 12 3 20 -1 17 -11 -6 -38 87 -52 175 -12 82 -31
141 -24 80 11 -116 19 -161 36 -214 22 -70 22 -69 8 -60 -8 4 -8 0 0 -15 10
-18 8 -21 -16 -26 -16 -3 -48 -10 -73 -16 -81 -19 -82 -19 -76 -4 3 9 -1 15
-9 15 -8 0 -15 -7 -15 -15 0 -21 -41 -35 -100 -35 -34 0 -50 -4 -54 -16 -12
-30 -6 -64 14 -84 11 -11 20 -27 20 -35 0 -8 5 -15 11 -15 6 0 9 -6 6 -13 -6
-16 29 -61 38 -47 3 5 4 13 2 18 -3 4 8 7 25 8 16 1 26 -2 21 -5 -10 -7 -9
-43 1 -60 9 -14 -9 -14 -35 -1 -10 6 -19 8 -19 6 0 -9 57 -36 62 -30 3 3 8 -2
11 -10 4 -9 2 -18 -3 -21 -18 -11 -10 -25 14 -25 25 0 43 -30 31 -50 -4 -6 -2
-16 3 -23 5 -7 12 -34 15 -60 4 -26 14 -60 22 -75 l15 -27 -7 30 c-4 17 -7 43
-8 59 0 27 3 29 45 33 85 7 191 48 182 71 -3 9 -1 13 5 9 6 -4 14 0 17 9 3 8
10 12 16 9 6 -4 7 1 3 11 -5 14 -3 16 11 11 14 -6 17 -3 12 9 -5 13 -2 15 14
11 11 -3 18 -1 14 4 -14 23 16 5 54 -33 28 -27 42 -50 42 -67 0 -20 -2 -23
-10 -11 -13 20 -13 -1 0 -34 7 -19 2 -47 -25 -127 -19 -56 -38 -106 -43 -113
-11 -15 -36 -145 -29 -152 3 -4 11 14 17 37 6 24 20 68 32 97 19 49 31 62 41
45 2 -5 2 -3 1 4 -2 7 0 15 5 17 4 3 13 -10 19 -29 7 -25 7 -35 -1 -35 -6 0
-2 -7 9 -16 16 -13 16 -15 1 -10 -16 5 -16 4 0 -21 l18 -26 -27 17 c-23 15
-26 15 -32 1 -11 -29 -6 -39 8 -20 12 16 16 17 29 6 9 -7 21 -10 26 -6 7 3 8
0 5 -9 -3 -9 -1 -16 5 -16 6 0 11 -5 11 -11 0 -8 -5 -8 -15 1 -21 17 -45 5
-44 -22 1 -17 2 -18 6 -5 2 9 11 17 19 17 11 0 13 -6 9 -19 -4 -14 0 -21 17
-27 26 -8 38 -22 38 -44 0 -13 -1 -13 -10 0 -6 9 -10 10 -10 3 0 -6 7 -18 15
-27 9 -9 11 -17 5 -21 -13 -8 -13 -42 1 -51 8 -4 9 1 4 17 -7 21 -6 22 9 10
20 -17 21 -61 1 -61 -23 0 -18 -16 10 -28 24 -11 30 -31 27 -82 0 -8 4 -18 10
-21 6 -4 11 -29 12 -57 1 -39 4 -48 14 -40 8 7 12 7 12 -2 0 -7 11 -1 25 13
25 25 39 28 61 15 14 -9 54 2 54 14 0 5 6 8 13 5 6 -2 20 0 29 5 14 6 16 5 12
-7 -4 -8 -2 -15 4 -15 6 0 12 5 14 12 2 6 9 8 16 4 21 -12 1 -38 -24 -32 -24
7 -34 -9 -11 -17 6 -2 0 -8 -15 -12 -15 -4 -29 -14 -32 -22 -5 -13 -9 -13 -22
-2 -13 10 -16 9 -20 -9 -4 -12 -11 -19 -20 -15 -8 3 -14 0 -14 -6 0 -6 -11
-11 -25 -11 -14 0 -25 5 -25 11 0 6 -6 9 -14 6 -7 -3 -18 -2 -22 1 -5 4 -1 -1
9 -10 11 -10 16 -18 12 -18 -11 0 -50 22 -56 33 -4 5 -9 5 -13 -2 -4 -6 -2
-11 4 -11 6 0 9 -4 5 -9 -3 -6 -14 -8 -25 -6 -11 2 -20 0 -20 -6 0 -5 -7 -9
-15 -9 -8 0 -15 -5 -15 -11 0 -12 -41 -2 -50 12 -3 5 -12 0 -20 -11 -10 -13
-18 -16 -30 -10 -14 8 -16 5 -12 -18 5 -25 4 -26 -13 -12 -17 14 -18 13 -12
-4 6 -16 3 -18 -23 -14 -16 3 -28 3 -25 0 8 -8 -24 -32 -44 -32 -11 0 -23 -5
-26 -10 -4 -6 -11 -8 -16 -5 -5 4 -9 1 -9 -4 0 -6 -7 -11 -15 -11 -8 0 -15 -4
-15 -8 0 -14 -76 -35 -104 -30 -15 3 -23 1 -19 -5 4 -6 -4 -8 -20 -5 -15 3
-24 1 -21 -3 7 -11 1 -11 -30 1 -17 6 -26 6 -26 -1 0 -6 -6 -6 -17 -1 -10 5
-34 8 -53 7 -56 -3 -81 36 -96 152 l-6 51 78 1 c81 0 193 31 163 45 -8 3 -4 4
9 2 30 -6 28 -1 -14 23 -23 14 -44 19 -60 15 -38 -10 -28 2 24 26 69 33 98 40
112 27 10 -9 12 -8 7 6 -4 12 -1 17 11 18 13 0 13 2 3 6 -8 3 -30 16 -49 29
-24 16 -43 22 -61 18 -20 -4 -23 -3 -11 5 9 7 10 11 3 11 -6 0 -14 -4 -18 -10
-4 -6 -16 -5 -33 1 -60 24 -180 52 -224 54 -57 2 -75 16 -84 62 -4 19 -12 37
-18 39 -7 3 -13 14 -13 27 -1 12 -7 23 -13 25 -5 2 -8 8 -4 13 3 5 0 9 -7 9
-6 0 -9 8 -6 20 3 11 2 18 -3 15 -4 -3 -10 1 -13 8 -8 22 29 13 93 -23 58 -33
65 -42 60 -85 -3 -30 13 -9 18 22 7 56 15 60 97 55 66 -4 78 -2 90 14 8 11 15
15 15 9 0 -5 6 -1 14 10 19 29 25 74 12 88 -19 19 -27 47 -14 47 7 0 5 5 -4
13 -9 6 -18 24 -22 38 -3 15 -13 30 -22 33 -12 5 -14 1 -8 -17 8 -22 8 -76 0
-112 -3 -11 -5 -22 -5 -25 -1 -3 -6 2 -12 10 -9 12 -10 11 -6 -7 3 -15 0 -23
-8 -23 -8 0 -20 -9 -28 -20 -11 -16 -21 -19 -45 -14 -18 4 -32 10 -32 15 0 5
-9 9 -19 9 -25 0 -37 18 -17 26 9 3 13 10 10 15 -3 5 1 9 8 9 10 0 9 3 -2 11
-12 8 -12 12 -2 16 10 4 9 8 -5 19 -17 12 -16 13 7 15 14 1 31 2 38 2 10 -1
10 2 1 13 -14 17 10 44 40 44 12 0 21 4 21 10 0 5 -3 9 -7 9 -5 -1 -10 0 -13
1 -19 7 -39 7 -34 -1 3 -5 -3 -12 -13 -16 -23 -9 -37 -23 -46 -45 -3 -10 -12
-18 -18 -18 -8 0 -7 -5 2 -16 12 -15 11 -16 -10 -9 -20 6 -23 5 -17 -10 6 -16
4 -16 -10 -4 -16 13 -17 11 -12 -14 4 -21 2 -27 -8 -23 -8 3 -14 -1 -14 -8 0
-8 -7 -17 -16 -20 -11 -4 -15 -2 -11 7 3 9 -2 14 -16 14 -41 1 -45 3 -57 32
-13 32 -7 65 19 96 16 20 16 20 -6 1 -26 -21 -27 -19 -25 47 0 35 -1 34 46 43
35 6 38 5 25 -9 -8 -8 -17 -13 -21 -10 -15 9 -8 -5 10 -18 9 -7 14 -10 11 -6
-3 4 8 22 25 41 17 18 46 59 65 90 45 76 53 170 23 263 -22 67 -21 179 1 198
7 6 11 18 9 29 -2 10 0 16 6 12 6 -4 8 2 5 14 -3 11 -1 20 4 20 5 0 8 12 7 28
-2 40 11 78 65 192 32 69 48 95 69 118 7 8 11 21 8 28 -3 8 -1 14 5 14 15 0
39 26 32 34 -4 3 1 6 10 6 10 0 17 5 17 10 0 6 -15 10 -33 10 -24 0 -39 -8
-59 -32z m133 -481 c-10 -9 -11 -8 -5 6 3 10 9 15 12 12 3 -3 0 -11 -7 -18z
m-83 -1 c-7 -8 -16 -12 -20 -9 -5 2 -8 -1 -8 -6 0 -15 27 -14 33 2 3 6 5 3 4
-9 -1 -16 -6 -19 -25 -16 -19 4 -23 2 -17 -8 5 -8 4 -11 -2 -7 -15 10 -3 55
16 60 29 8 32 7 19 -7z m342 -2 c0 -8 -5 -12 -10 -9 -6 4 -8 11 -5 16 9 14 15
11 15 -7z m-392 -6 c-2 -6 -10 -14 -18 -16 -8 -3 -10 0 -5 8 6 9 4 12 -7 8 -8
-4 -21 -2 -29 3 -10 6 -2 9 24 9 26 0 37 -4 35 -12z m298 -2 c8 -8 14 -19 14
-24 0 -5 6 -15 14 -21 8 -7 18 -26 21 -42 4 -16 11 -27 16 -23 5 3 9 3 9 0 0
-2 3 -13 7 -23 6 -16 5 -17 -12 -3 -11 9 -16 10 -11 2 4 -7 4 -21 1 -32 -5
-17 -10 -18 -27 -9 -18 10 -20 9 -15 -5 7 -17 -8 -23 -18 -7 -6 11 -45 11 -45
0 0 -4 -37 -6 -82 -5 l-83 1 2 29 c1 16 -2 36 -9 43 -7 9 -7 13 1 13 6 0 11
10 11 23 0 23 25 38 135 78 61 22 54 22 71 5z m-238 -120 c-4 -44 -48 -40 -55
4 -1 12 1 11 11 -2 17 -23 26 -23 26 2 0 11 4 20 10 20 5 0 9 -11 8 -24z m132
-105 c0 -6 -4 -12 -8 -15 -5 -3 -9 1 -9 9 0 8 4 15 9 15 4 0 8 -4 8 -9z m30
-1 c0 -5 -2 -10 -4 -10 -3 0 -8 5 -11 10 -3 6 -1 10 4 10 6 0 11 -4 11 -10z
m-60 -6 c0 -8 -19 -13 -24 -6 -3 5 1 9 9 9 8 0 15 -2 15 -3z m40 -114 c0 -5
-2 -10 -4 -10 -3 0 -8 5 -11 10 -3 6 -1 10 4 10 6 0 11 -4 11 -10z m45 -27
c-11 -3 -25 -9 -31 -14 -6 -5 -25 -7 -42 -6 -49 3 -15 22 44 24 27 1 40 -1 29
-4z m-515 -137 c0 -2 -7 -7 -16 -10 -8 -3 -12 -2 -9 4 6 10 25 14 25 6z m-73
-198 c-3 -8 -6 -5 -6 6 -1 11 2 17 5 13 3 -3 4 -12 1 -19z m24 -58 c6 0 8 -4
4 -9 -3 -6 4 -33 15 -62 11 -29 17 -55 15 -57 -5 -5 -6 -3 -35 82 -11 33 -19
66 -19 75 1 9 4 6 6 -6 2 -13 9 -23 14 -23z m159 20 c0 -5 -4 -10 -10 -10 -5
0 -10 5 -10 10 0 6 5 10 10 10 6 0 10 -4 10 -10z m790 -80 c0 -5 -2 -10 -4
-10 -3 0 -8 5 -11 10 -3 6 -1 10 4 10 6 0 11 -4 11 -10z m425 -330 c-3 -5 -18
-9 -33 -9 l-27 1 30 8 c17 4 31 8 33 9 2 0 0 -3 -3 -9z m-51 -31 c49 -28 46
-34 -4 -9 -22 11 -40 23 -40 25 0 8 8 6 44 -16z m186 0 c0 -6 -4 -7 -10 -4 -5
3 -10 11 -10 16 0 6 5 7 10 4 6 -3 10 -11 10 -16z m-1294 -6 c4 4 13 -1 21
-11 12 -16 13 -16 7 1 -5 13 -2 16 12 14 11 -1 25 -6 32 -10 6 -5 18 -5 25 -1
6 4 4 -2 -6 -14 -11 -11 -25 -18 -32 -16 -7 3 -23 0 -35 -6 -15 -8 -20 -8 -16
-1 4 6 2 11 -4 11 -6 0 -8 5 -4 13 5 8 2 8 -9 -2 -18 -15 -23 -26 -7 -16 6 3
10 1 10 -5 0 -18 -25 -6 -28 14 -2 9 -1 25 3 34 5 14 7 14 15 2 5 -8 12 -11
16 -7z m1169 -13 c3 -5 1 -10 -4 -10 -6 0 -11 5 -11 10 0 6 2 10 4 10 3 0 8
-4 11 -10z m128 -6 c9 -3 12 -14 9 -29 -2 -14 -9 -22 -14 -19 -5 3 -7 13 -3
22 3 8 0 19 -7 24 -15 9 -6 11 15 2z m-173 -34 c0 -11 -2 -20 -4 -20 -2 0 -6
9 -9 20 -3 11 -1 20 4 20 5 0 9 -9 9 -20z m-275 -108 c-3 -3 -11 0 -18 7 -9
10 -8 11 6 5 10 -3 15 -9 12 -12z m-195 -42 c0 -5 -2 -10 -4 -10 -3 0 -8 5
-11 10 -3 6 -1 10 4 10 6 0 11 -4 11 -10z m352 -103 c-12 -6 -22 -16 -22 -24
0 -7 -4 -13 -9 -13 -5 0 -5 13 2 29 8 22 15 27 31 23 20 -5 20 -6 -2 -15z
m-84 -283 c-4 -3 -12 5 -18 18 -12 22 -12 22 6 6 10 -10 15 -20 12 -24z"/>
<path d="M915 2729 c-4 -6 -5 -12 -2 -15 2 -3 7 2 10 11 7 17 1 20 -8 4z"/>
<path d="M887 2657 c-4 -10 -7 -28 -6 -40 0 -21 1 -21 10 2 5 14 8 32 7 40 -3
13 -5 13 -11 -2z"/>
<path d="M867 2563 c-6 -34 -5 -37 10 -14 6 10 8 23 3 30 -5 9 -9 3 -13 -16z"/>
<path d="M1772 2535 c0 -16 2 -22 5 -12 2 9 2 23 0 30 -3 6 -5 -1 -5 -18z"/>
<path d="M1836 2475 c-4 -14 -4 -30 -1 -35 4 -6 2 -10 -4 -10 -5 0 -12 6 -15
13 -4 6 -4 -3 -1 -21 3 -18 12 -43 20 -55 14 -20 15 -16 14 56 -1 42 -2 77 -4
77 -2 0 -6 -11 -9 -25z"/>
<path d="M883 2455 c0 -8 4 -12 9 -9 4 3 8 9 8 15 0 5 -4 9 -8 9 -5 0 -9 -7
-9 -15z"/>
<path d="M851 2444 c0 -11 3 -14 6 -6 3 7 2 16 -1 19 -3 4 -6 -2 -5 -13z"/>
<path d="M141 2359 c-6 -18 -9 -34 -7 -36 2 -2 9 10 15 28 6 18 9 34 7 36 -2
2 -9 -10 -15 -28z"/>
<path d="M840 2359 c0 -5 5 -7 10 -4 6 3 10 8 10 11 0 2 -4 4 -10 4 -5 0 -10
-5 -10 -11z"/>
<path d="M838 2333 c7 -3 16 -2 19 1 4 3 -2 6 -13 5 -11 0 -14 -3 -6 -6z"/>
<path d="M1792 2320 c-15 -25 -15 -30 0 -30 6 0 8 3 5 7 -4 3 -2 12 5 20 6 7
9 15 7 18 -3 2 -10 -5 -17 -15z"/>
<path d="M1851 2324 c0 -11 3 -14 6 -6 3 7 2 16 -1 19 -3 4 -6 -2 -5 -13z"/>
<path d="M1218 2313 c-16 -2 -28 -11 -28 -19 0 -19 13 -18 52 6 33 20 30 21
-24 13z"/>
<path d="M220 2289 c0 -11 -4 -18 -9 -15 -5 4 -7 -3 -4 -14 6 -24 -46 -222
-57 -215 -4 2 -5 -8 -3 -23 3 -19 2 -23 -5 -14 -7 10 -12 1 -21 -32 -24 -96
-4 -101 25 -6 13 43 22 59 33 58 10 -2 17 6 19 20 2 12 -1 22 -7 22 -6 0 -11
4 -11 10 0 5 7 7 15 4 10 -4 15 0 15 11 0 9 -4 13 -10 10 -5 -3 -10 1 -10 9 0
9 7 16 15 16 8 0 15 8 15 18 0 15 -2 15 -11 2 -8 -12 -9 -11 -5 5 2 11 8 36
12 55 6 29 8 31 14 16 6 -19 7 -19 12 2 4 13 2 20 -5 19 -7 -1 -10 11 -8 31 1
17 0 32 -3 32 -3 0 -6 -9 -6 -21z m-33 -251 c-3 -8 -6 -5 -6 6 -1 11 2 17 5
13 3 -3 4 -12 1 -19z"/>
<path d="M1867 2245 c6 -61 9 -72 18 -63 3 3 -1 32 -9 64 l-15 59 6 -60z"/>
<path d="M251 2274 c0 -11 3 -14 6 -6 3 7 2 16 -1 19 -3 4 -6 -2 -5 -13z"/>
<path d="M1843 2245 c0 -22 2 -30 4 -17 2 12 2 30 0 40 -3 9 -5 -1 -4 -23z"/>
<path d="M96 2253 c-6 -14 -5 -15 5 -6 7 7 10 15 7 18 -3 3 -9 -2 -12 -12z"/>
<path d="M221 2184 c0 -11 3 -14 6 -6 3 7 2 16 -1 19 -3 4 -6 -2 -5 -13z"/>
<path d="M351 2154 c0 -11 3 -14 6 -6 3 7 2 16 -1 19 -3 4 -6 -2 -5 -13z"/>
<path d="M1240 2142 c0 -12 3 -12 15 -2 8 7 15 13 15 15 0 1 -7 2 -15 2 -8 0
-15 -7 -15 -15z"/>
<path d="M1742 2130 c0 -14 2 -19 5 -12 2 6 2 18 0 25 -3 6 -5 1 -5 -13z"/>
<path d="M3111 2134 c0 -11 3 -14 6 -6 3 7 2 16 -1 19 -3 4 -6 -2 -5 -13z"/>
<path d="M10 2125 c0 -5 5 -17 10 -25 5 -8 10 -10 10 -5 0 6 -5 17 -10 25 -5
8 -10 11 -10 5z"/>
<path d="M335 2090 c-4 -23 -5 -43 -2 -46 2 -3 7 14 11 37 4 23 5 44 2 46 -2
2 -7 -14 -11 -37z"/>
<path d="M1761 2104 c0 -11 3 -14 6 -6 3 7 2 16 -1 19 -3 4 -6 -2 -5 -13z"/>
<path d="M1726 2059 c-4 -23 -5 -44 -2 -46 2 -2 7 14 11 37 4 23 5 43 2 46 -2
3 -7 -14 -11 -37z"/>
<path d="M11 2064 c0 -11 3 -14 6 -6 3 7 2 16 -1 19 -3 4 -6 -2 -5 -13z"/>
<path d="M30 2060 c0 -11 4 -20 9 -20 5 0 7 9 4 20 -3 11 -7 20 -9 20 -2 0 -4
-9 -4 -20z"/>
<path d="M3031 2054 c0 -11 3 -14 6 -6 3 7 2 16 -1 19 -3 4 -6 -2 -5 -13z"/>
<path d="M78 1990 c-2 -14 -1 -37 3 -52 4 -15 3 -30 -2 -33 -5 -4 -9 -12 -9
-18 0 -7 4 -6 10 3 7 11 10 1 10 -35 1 -41 3 -47 11 -31 7 11 9 36 4 65 -4 25
-7 52 -8 59 0 6 -5 12 -11 12 -8 0 -8 3 0 8 7 4 8 15 4 27 -7 18 -8 18 -12 -5z"/>
<path d="M1706 1954 c-3 -26 -4 -49 -2 -52 3 -2 8 17 11 43 4 25 5 48 3 51 -3
2 -8 -17 -12 -42z"/>
<path d="M2460 1995 c0 -5 5 -17 10 -25 5 -8 10 -10 10 -5 0 6 -5 17 -10 25
-5 8 -10 11 -10 5z"/>
<path d="M176 1975 c-3 -9 0 -15 9 -15 8 0 15 7 15 15 0 8 -4 15 -9 15 -5 0
-11 -7 -15 -15z"/>
<path d="M210 1936 c0 -8 4 -17 9 -20 5 -4 7 3 4 14 -6 23 -13 26 -13 6z"/>
<path d="M3075 1930 c-3 -5 -1 -10 4 -10 6 0 11 5 11 10 0 6 -2 10 -4 10 -3 0
-8 -4 -11 -10z"/>
<path d="M1679 1738 c-8 -26 -23 -130 -33 -225 -3 -29 -9 -61 -15 -70 -5 -10
-20 -59 -34 -108 -20 -74 -22 -93 -11 -102 10 -10 12 -6 7 25 -6 34 -5 36 10
23 11 -9 17 -10 17 -2 0 6 -4 11 -10 11 -5 0 -10 9 -10 21 0 13 4 18 12 13 8
-5 9 -2 5 9 -3 10 -2 17 3 17 6 0 10 14 10 31 0 16 4 28 9 25 4 -3 6 7 3 22
-5 26 -5 26 13 8 18 -17 34 -120 30 -188 -1 -16 2 -28 7 -28 8 0 11 16 9 60 0
21 2 20 14 -10 l14 -35 -6 45 c-3 25 -13 83 -23 129 -13 61 -17 117 -14 207 2
68 1 124 -1 124 -3 0 -5 -1 -6 -2z"/>
<path d="M727 1719 c7 -7 15 -10 18 -7 3 3 -2 9 -12 12 -14 6 -15 5 -6 -5z"/>
<path d="M1891 1704 c0 -11 3 -14 6 -6 3 7 2 16 -1 19 -3 4 -6 -2 -5 -13z"/>
<path d="M2898 1688 c-14 -14 -15 -18 -4 -18 8 0 17 7 20 16 9 23 4 24 -16 2z"/>
<path d="M754 1657 c10 -7 16 -18 13 -24 -4 -6 0 -19 8 -29 13 -17 14 -18 15
-1 0 9 -4 17 -8 17 -5 0 -8 10 -8 22 1 15 -6 24 -19 26 -20 4 -20 3 -1 -11z"/>
<path d="M1882 1650 c0 -14 2 -19 5 -12 2 6 2 18 0 25 -3 6 -5 1 -5 -13z"/>
<path d="M1868 1560 c-2 -22 0 -40 4 -40 5 0 8 18 8 40 0 22 -2 40 -4 40 -2 0
-6 -18 -8 -40z"/>
<path d="M1305 1571 c-3 -5 -2 -12 3 -15 5 -3 9 1 9 9 0 17 -3 19 -12 6z"/>
<path d="M1861 1484 c0 -11 3 -14 6 -6 3 7 2 16 -1 19 -3 4 -6 -2 -5 -13z"/>
<path d="M2786 1473 c-6 -14 -5 -15 5 -6 7 7 10 15 7 18 -3 3 -9 -2 -12 -12z"/>
<path d="M1290 1461 c0 -5 5 -13 10 -16 6 -3 10 -2 10 4 0 5 -4 13 -10 16 -5
3 -10 2 -10 -4z"/>
<path d="M1850 1404 c0 -21 4 -45 9 -53 5 -8 7 5 4 35 -7 61 -13 70 -13 18z"/>
<path d="M1642 1365 c0 -16 2 -22 5 -12 2 9 2 23 0 30 -3 6 -5 -1 -5 -18z"/>
<path d="M2058 1193 c7 -3 16 -2 19 1 4 3 -2 6 -13 5 -11 0 -14 -3 -6 -6z"/>
<path d="M1985 1170 c-3 -5 -1 -10 4 -10 6 0 11 5 11 10 0 6 -2 10 -4 10 -3 0
-8 -4 -11 -10z"/>
<path d="M2038 1103 c7 -3 16 -2 19 1 4 3 -2 6 -13 5 -11 0 -14 -3 -6 -6z"/>
<path d="M2536 1097 c3 -10 9 -15 12 -12 3 3 0 11 -7 18 -10 9 -11 8 -5 -6z"/>
<path d="M2580 1106 c0 -3 14 -12 30 -21 17 -9 30 -13 30 -11 0 3 -13 12 -30
21 -16 9 -30 13 -30 11z"/>
<path d="M2496 1065 c15 -24 33 -37 19 -15 -4 6 -1 19 7 28 12 15 11 16 -4 3
-12 -9 -18 -10 -18 -2 0 6 -5 11 -10 11 -6 0 -3 -11 6 -25z"/>
<path d="M2161 1063 c-9 -10 -24 -13 -45 -10 -17 3 -26 3 -19 1 7 -3 10 -11 7
-17 -2 -7 6 -13 21 -13 14 -1 23 2 20 6 -3 5 -1 11 5 15 5 3 10 -1 10 -10 0
-13 4 -14 20 -5 15 8 20 8 20 -1 0 -8 5 -7 17 2 9 8 19 14 22 14 3 0 5 3 3 8
-1 4 17 4 39 1 31 -5 40 -4 35 5 -5 7 -27 9 -68 6 -34 -4 -64 -2 -67 3 -3 6
-12 3 -20 -5z"/>
<path d="M2382 1057 c29 -11 78 -11 89 0 5 5 -17 9 -51 9 -45 0 -55 -3 -38 -9z"/>
<path d="M2061 1034 c-14 -32 -11 -36 10 -14 9 10 13 23 10 29 -5 7 -12 2 -20
-15z"/>
<path d="M1561 1012 c-14 -26 -14 -32 -1 -32 6 0 10 7 10 16 0 13 3 14 14 5
11 -9 16 -9 22 0 4 7 3 9 -4 5 -6 -3 -15 1 -20 10 -9 16 -11 15 -21 -4z"/>
<path d="M930 1016 c0 -3 9 -10 20 -16 11 -6 20 -8 20 -6 0 3 -9 10 -20 16
-11 6 -20 8 -20 6z"/>
<path d="M1656 993 c-6 -14 -5 -15 5 -6 7 7 10 15 7 18 -3 3 -9 -2 -12 -12z"/>
<path d="M1585 970 c3 -5 11 -10 16 -10 6 0 7 5 4 10 -3 6 -11 10 -16 10 -6 0
-7 -4 -4 -10z"/>
<path d="M1550 950 c0 -5 7 -10 16 -10 8 0 12 5 9 10 -3 6 -10 10 -16 10 -5 0
-9 -4 -9 -10z"/>
<path d="M3085 910 c27 -12 43 -12 25 0 -8 5 -22 9 -30 9 -10 0 -8 -3 5 -9z"/>
<path d="M3145 890 c27 -12 43 -12 25 0 -8 5 -22 9 -30 9 -10 0 -8 -3 5 -9z"/>
<path d="M3205 870 c27 -12 43 -12 25 0 -8 5 -22 9 -30 9 -10 0 -8 -3 5 -9z"/>
<path d="M3291 866 c8 -8 133 -56 136 -52 2 2 -26 15 -62 30 -62 25 -84 31
-74 22z"/>
<path d="M3310 837 c0 -3 37 -19 83 -37 156 -62 210 -96 315 -198 98 -97 154
-168 227 -292 21 -36 41 -67 44 -70 3 -3 15 -21 25 -40 30 -54 107 -169 117
-176 6 -3 9 92 7 253 -1 142 -4 250 -6 241 -2 -10 -7 -18 -12 -18 -5 0 -7 -7
-4 -15 7 -18 -12 -20 -19 -2 -4 7 -8 3 -12 -10 -4 -13 -11 -20 -16 -17 -5 3
-6 -1 -3 -9 7 -18 -53 -70 -69 -60 -8 5 -7 9 5 11 12 2 17 13 16 43 0 33 -4
40 -24 45 -13 3 -24 11 -24 17 0 6 -3 8 -6 5 -7 -7 13 -46 34 -67 12 -13 12
-16 -7 -23 -12 -4 -21 -16 -21 -28 0 -11 -6 -20 -12 -20 -13 1 -26 17 -87 105
-19 28 -31 41 -27 30 4 -11 -44 31 -107 93 -62 63 -127 120 -145 129 -18 9
-32 19 -32 24 0 5 -7 9 -15 9 -9 0 -32 7 -53 16 -20 8 -37 14 -37 14 0 -1 -40
14 -122 47 -7 3 -13 3 -13 0z m777 -409 c-3 -8 -6 -5 -6 6 -1 11 2 17 5 13 3
-3 4 -12 1 -19z"/>
<path d="M1688 683 c7 -3 16 -2 19 1 4 3 -2 6 -13 5 -11 0 -14 -3 -6 -6z"/>
<path d="M2874 604 c-18 -14 -18 -14 6 -3 31 14 36 19 24 19 -6 0 -19 -7 -30
-16z"/>
<path d="M3962 591 c2 -7 7 -12 11 -12 12 1 9 15 -3 20 -7 2 -11 -2 -8 -8z"/>
<path d="M2809 569 l-24 -20 30 17 c39 24 40 24 28 24 -6 0 -21 -9 -34 -21z"/>
<path d="M3656 576 c10 -8 21 -12 24 -10 5 6 -21 24 -34 24 -6 0 -1 -6 10 -14z"/>
<path d="M4071 554 c0 -11 3 -14 6 -6 3 7 2 16 -1 19 -3 4 -6 -2 -5 -13z"/>
<path d="M4102 550 c0 -14 2 -19 5 -12 2 6 2 18 0 25 -3 6 -5 1 -5 -13z"/>
<path d="M3973 545 c0 -8 6 -15 13 -15 8 0 11 6 8 15 -4 8 -9 15 -13 15 -4 0
-8 -7 -8 -15z"/>
<path d="M2765 541 c-3 -5 -2 -12 3 -15 5 -3 9 1 9 9 0 17 -3 19 -12 6z"/>
<path d="M3676 541 c-6 -9 7 -22 34 -35 8 -4 6 0 -5 9 -11 9 -19 21 -17 26 3
12 -5 12 -12 0z"/>
<path d="M4020 541 c0 -5 7 -14 15 -21 16 -14 18 -10 9 14 -6 17 -24 22 -24 7z"/>
<path d="M2689 473 c-19 -21 -25 -31 -14 -23 30 23 57 51 53 56 -3 2 -20 -13
-39 -33z"/>
<path d="M4010 500 c0 -5 5 -10 10 -10 6 0 10 5 10 10 0 6 -4 10 -10 10 -5 0
-10 -4 -10 -10z"/>
<path d="M3760 473 c0 -6 5 -13 11 -15 5 -2 12 -16 13 -31 3 -29 26 -63 26
-40 0 7 -4 14 -10 18 -5 3 -7 12 -4 19 3 7 -4 24 -15 37 -11 13 -20 19 -21 12z"/>
<path d="M3928 464 c-4 -3 0 -13 8 -21 19 -20 28 -12 11 11 -7 9 -16 14 -19
10z"/>
<path d="M2174 399 c-3 -6 0 -17 8 -25 13 -13 15 -13 15 0 0 8 -5 12 -10 9 -6
-4 -8 0 -4 10 7 19 2 23 -9 6z"/>
<path d="M2150 387 c0 -7 6 -19 13 -26 8 -10 8 -12 0 -7 -6 3 -15 1 -18 -5 -4
-5 -23 -10 -44 -9 -56 3 -71 1 -71 -9 0 -6 9 -8 19 -6 11 2 22 -3 25 -11 4
-10 -3 -14 -25 -14 -18 0 -28 -4 -24 -10 3 -5 -1 -10 -9 -10 -9 0 -16 -4 -16
-10 0 -22 -42 -58 -63 -54 -21 4 -21 4 -2 -4 11 -5 29 -8 40 -7 49 6 50 6 30
15 -18 8 -17 9 8 9 16 1 26 5 23 10 -3 5 1 12 10 15 12 4 15 2 10 -9 -3 -9 0
-15 10 -15 8 0 12 5 9 10 -9 15 21 41 40 34 12 -5 13 -9 4 -21 -11 -12 -9 -12
14 -2 15 7 29 20 32 31 4 10 15 18 26 18 10 0 18 3 17 8 -1 4 3 17 10 30 8 14
9 22 2 22 -5 0 -10 -6 -10 -12 0 -7 -14 2 -30 20 -17 18 -30 26 -30 19z"/>
<path d="M2105 369 c-10 -14 -1 -21 19 -13 9 3 13 10 10 15 -7 12 -21 11 -29
-2z"/>
<path d="M3856 357 c3 -10 9 -15 12 -12 3 3 0 11 -7 18 -10 9 -11 8 -5 -6z"/>
<path d="M2613 336 c-11 -13 -27 -51 -38 -85 -10 -33 -21 -59 -24 -56 -4 2 -7
-7 -7 -20 0 -13 4 -21 8 -19 5 3 6 9 3 14 -3 4 2 13 10 20 8 7 12 16 9 21 -3
5 0 9 6 9 6 0 8 5 5 10 -4 6 -1 17 5 25 7 8 9 15 5 15 -4 0 5 20 18 45 28 50
28 57 0 21z"/>
<path d="M3866 287 c3 -10 9 -15 12 -12 3 3 0 11 -7 18 -10 9 -11 8 -5 -6z"/>
<path d="M3935 231 c2 -18 6 -36 9 -39 10 -9 6 42 -4 58 -7 11 -8 6 -5 -19z"/>
<path d="M3960 203 c0 -6 5 -15 10 -18 6 -3 10 -11 10 -17 0 -6 -7 -5 -17 3
-15 13 -15 12 -5 -7 6 -11 18 -26 26 -34 9 -7 16 -18 16 -26 0 -7 5 -16 12
-20 8 -5 9 -2 4 12 -4 10 -9 27 -11 37 -5 24 -45 86 -45 70z m34 -59 c3 -8 2
-12 -4 -9 -6 3 -10 10 -10 16 0 14 7 11 14 -7z"/>
<path d="M1339 183 c-13 -17 -13 -17 6 -3 11 8 22 16 24 17 2 2 0 3 -6 3 -6 0
-17 -8 -24 -17z"/>
<path d="M1913 178 c-10 -11 -12 -18 -5 -18 7 0 12 5 12 10 0 6 9 10 21 10 15
0 19 -5 15 -15 -3 -8 -1 -15 4 -15 6 0 10 10 10 23 0 28 -33 31 -57 5z"/>
<path d="M1980 145 c-7 -8 -18 -15 -25 -15 -6 0 -20 -9 -30 -20 -10 -11 -14
-20 -9 -20 10 0 92 69 83 70 -4 0 -12 -7 -19 -15z"/>
<path d="M1255 129 c-16 -10 -34 -24 -40 -31 -5 -7 -32 -30 -58 -52 -26 -21
-46 -41 -43 -44 4 -3 16 4 29 15 39 35 48 37 37 9 -8 -22 -7 -26 9 -26 11 0
25 15 36 41 16 35 17 42 4 51 -12 8 -11 9 2 5 10 -3 24 5 38 24 12 16 20 29
19 28 -2 0 -16 -9 -33 -20z"/>
<path d="M2540 125 c0 -8 4 -15 10 -15 5 0 7 7 4 15 -4 8 -8 15 -10 15 -2 0
-4 -7 -4 -15z"/>
<path d="M1865 89 c-9 -26 -1 -34 22 -20 16 9 16 10 1 11 -11 0 -15 5 -12 15
4 8 4 15 1 15 -3 0 -9 -9 -12 -21z"/>
</g>
</svg>
